<svg width="392" height="210" viewBox="0 0 392 210" fill="none" xmlns="http://www.w3.org/2000/svg">
<path d="M34.944 118L79.56 17.9H102.44L147.199 118H122.889L86.281 29.626H95.433L58.682 118H34.944ZM57.252 96.55L63.401 78.961H114.881L121.173 96.55H57.252ZM140.838 118L183.881 58.655V75.529L142.697 17.9H169.009L197.466 58.083L186.455 58.226L214.483 17.9H239.651L198.753 74.528V57.94L242.082 118H215.341L185.883 75.529H196.465L167.436 118H140.838ZM319.789 17.9H342.955V118H319.789V17.9ZM274.315 118H251.149V17.9H274.315V118ZM321.505 76.959H272.599V57.368H321.505V76.959Z" fill="#3C3837"/>
<path d="M42.8235 177V128.7H52.0695L72.6315 162.786H67.7325L87.9495 128.7H97.1265L97.2645 177H86.7765L86.7075 144.777H88.6395L72.4935 171.894H67.4565L50.9655 144.777H53.3115V177H42.8235ZM137.29 148.158H160.543V156.852H137.29V148.158ZM138.118 168.03H164.407V177H127.009V128.7H163.51V137.67H138.118V168.03ZM191.586 177V128.7H213.528C218.772 128.7 223.395 129.712 227.397 131.736C231.399 133.714 234.527 136.497 236.781 140.085C239.035 143.673 240.162 147.928 240.162 152.85C240.162 157.726 239.035 161.981 236.781 165.615C234.527 169.203 231.399 172.009 227.397 174.033C223.395 176.011 218.772 177 213.528 177H191.586ZM202.764 167.823H212.976C216.196 167.823 218.979 167.225 221.325 166.029C223.717 164.787 225.557 163.039 226.845 160.785C228.179 158.531 228.846 155.886 228.846 152.85C228.846 149.768 228.179 147.123 226.845 144.915C225.557 142.661 223.717 140.936 221.325 139.74C218.979 138.498 216.196 137.877 212.976 137.877H202.764V167.823ZM266.877 177V128.7H278.055V177H266.877ZM301.454 177L322.982 128.7H334.022L355.619 177H343.889L326.225 134.358H330.641L312.908 177H301.454ZM312.218 166.65L315.185 158.163H340.025L343.061 166.65H312.218Z" fill="#3C3837"/>
</svg>
